<?xml version="1.0" encoding="UTF-8"?>
<svg id="Layer_1" data-name="Layer 1" xmlns="http://www.w3.org/2000/svg" viewBox="0 0 261.94 151.48">
  <defs>
    <style>
      .cls-1 {
        fill: #ef5593;
      }

      .cls-2 {
        fill: #3899c6;
      }

      .cls-3 {
        fill: #067a67;
      }

      .cls-4 {
        fill: #f07835;
      }

      .cls-5 {
        fill: #073b4c;
      }

      .cls-6 {
        fill: #ed1f62;
      }

      .cls-7 {
        fill: #6ba971;
      }

      .cls-8 {
        fill: #eeaf43;
      }

      .cls-9 {
        fill: #4d65a6;
      }
    </style>
  </defs>
  <g>
    <path class="cls-1" d="M104.71,9.37C98.49,1.77,88-1.68,78.48.79c-27.59,7.3-25.78,49.38-9.42,67.42.49.53,1.35,1.64,1.93,1.18-2.61-5.48-4.06-11.61-4.06-18.08,0-21.81,16.56-39.75,37.78-41.94Z"/>
    <path class="cls-6" d="M71.35,68.76c2.92-13.68,13.32-22.27,26.68-24.77,13.23-4.87,15.9-22.35,7.94-32.93-.4-.59-.83-1.15-1.27-1.7-21.23,2.19-37.78,20.13-37.78,41.94,0,6.47,1.46,12.6,4.06,18.08.14-.11.26-.31.36-.62Z"/>
  </g>
  <g>
    <path class="cls-7" d="M51.68,78.83C.17,75.3-2.67,125.6,28.17,129.13c-3.47-5.16-5.49-11.38-5.49-18.06,0-16.75,12.7-30.53,29-32.24Z"/>
    <path class="cls-3" d="M63.64,79.78c.39.11.78.22,1.16.34-.14-.19-.52-.28-1.16-.34Z"/>
    <path class="cls-3" d="M34.5,129.21c5.42-1.01,11.1-4.91,14.2-10.19,2.54-4.43,2.35-9.63,3.51-14.51,1.59-6.91,4.95-13.56,9.04-19.22,2.52-3.4,3.93-4.66,3.55-5.18-.38-.12-.77-.23-1.16-.34-1.43-.13-4.17-.11-8.59-.66-1.15-.13-2.27-.22-3.37-.3-16.3,1.71-29,15.49-29,32.24,0,6.69,2.03,12.9,5.49,18.06,1.97.23,4.08.26,6.32.08Z"/>
  </g>
  <g>
    <path class="cls-2" d="M63.64,105.26c0-8.06,2.55-15.53,6.88-21.64-14.28,16.33-20.03,49.04.08,62.97,12.09,8.69,26.76,4.88,35.22-4.14-1.54.19-3.11.29-4.7.29-20.7,0-37.48-16.78-37.48-37.48Z"/>
    <path class="cls-9" d="M107.59,111.23c-6.28-7.67-13.29-3.86-21.07-8.15-2.54-1.35-5-3.12-7.02-5.11-3.62-3.68-6.35-8.52-7.83-13.49-.18-.54-.49-1.4-1.15-.87,0,0,0,0,0,.01-4.33,6.11-6.88,13.58-6.88,21.64,0,20.7,16.78,37.48,37.48,37.48,1.59,0,3.16-.1,4.7-.29,7.51-8,10.14-20.1,1.78-31.21Z"/>
  </g>
  <g>
    <path class="cls-8" d="M43.77,30.24s.07,0,.11,0c-.02-.02-.03-.03-.05-.05C16.45,2.64-18.43,50.36,12.55,68.56c1.2.71,2.5,1.37,3.91,1.98,1.79.75,3.6,1.28,5.43,1.66-3.03-4.33-4.8-9.59-4.8-15.27,0-14.74,11.95-26.69,26.69-26.69Z"/>
    <path class="cls-4" d="M55.51,71.83c2.47.21,5.15.78,7.63,1.16.86.13,1.6.35.96-.6-4.22-5.38-8.02-10.42-10.32-16.96-2.9-8.42-2.41-17.42-8.83-24.14-.34-.35-.7-.7-1.07-1.04-.04,0-.07,0-.11,0-14.74,0-26.69,11.95-26.69,26.69,0,5.68,1.78,10.95,4.8,15.27,10.95,2.27,22.45-1.22,33.63-.37Z"/>
  </g>
  <g>
    <path class="cls-5" d="M86.45,53.2c0-.28.23-.53.53-.53h6.78c3.46,0,6.3,2.82,6.3,6.22s-2.84,6.33-6.28,6.33h-2.96v6.61c0,.28-.25.53-.53.53h-3.32c-.31,0-.53-.25-.53-.53v-18.63ZM93.51,61.11c1.21,0,2.22-.96,2.22-2.22,0-1.18-1.01-2.08-2.22-2.08h-2.67v4.31h2.67Z"/>
    <path class="cls-5" d="M102.94,53.2c0-.28.25-.53.53-.53h3.38c.28,0,.53.25.53.53v18.63c0,.28-.25.53-.53.53h-3.38c-.28,0-.53-.25-.53-.53v-18.63Z"/>
    <path class="cls-5" d="M120.96,52.38c2.81,0,4.9.87,6.81,2.62.25.22.25.56.03.79l-2.19,2.28c-.2.2-.51.2-.7,0-1.04-.93-2.42-1.44-3.8-1.44-3.18,0-5.52,2.65-5.52,5.8s2.36,5.71,5.55,5.71c1.32,0,2.76-.48,3.77-1.35.2-.17.56-.17.73.03l2.2,2.34c.2.2.17.56-.03.76-1.91,1.86-4.33,2.73-6.84,2.73-5.63,0-10.16-4.48-10.16-10.1s4.53-10.16,10.16-10.16Z"/>
    <path class="cls-5" d="M131.18,53.34c0-.37.28-.68.68-.68h3.29c.37,0,.68.31.68.68v7.4l6.25-7.8c.11-.14.37-.28.53-.28h3.55c.53,0,.82.62.51,1.04l-6.59,8.25,7.18,9.34c.31.42,0,1.04-.53,1.04h-3.88c-.2,0-.45-.11-.51-.2l-6.5-8.84v8.39c0,.37-.31.68-.68.68h-3.29c-.39,0-.68-.31-.68-.68v-18.35Z"/>
    <path class="cls-5" d="M150.13,53.2c0-.28.23-.53.53-.53h11.65c.31,0,.53.25.53.53v3.07c0,.28-.23.53-.53.53h-7.8v3.49h6.42c.28,0,.53.25.53.53v3.07c0,.31-.25.53-.53.53h-6.42v3.8h7.8c.31,0,.53.25.53.53v3.07c0,.28-.23.53-.53.53h-11.65c-.31,0-.53-.25-.53-.53v-18.63Z"/>
    <path class="cls-5" d="M169.16,56.8h-4.02c-.31,0-.53-.25-.53-.53v-3.07c0-.28.22-.53.53-.53h12.5c.31,0,.53.25.53.53v3.07c0,.28-.22.53-.53.53h-4.02v15.03c0,.28-.25.53-.53.53h-3.38c-.28,0-.53-.25-.53-.53v-15.03Z"/>
    <path class="cls-5" d="M187.2,53.2c0-.28.23-.53.53-.53h6.78c3.46,0,6.3,2.82,6.3,6.22s-2.84,6.33-6.28,6.33h-2.96v6.61c0,.28-.25.53-.53.53h-3.32c-.31,0-.53-.25-.53-.53v-18.63ZM194.27,61.11c1.21,0,2.22-.96,2.22-2.22,0-1.18-1.01-2.08-2.22-2.08h-2.67v4.31h2.67Z"/>
    <path class="cls-5" d="M203.7,53.2c0-.28.25-.53.53-.53h3.38c.28,0,.53.25.53.53v18.63c0,.28-.25.53-.53.53h-3.38c-.28,0-.53-.25-.53-.53v-18.63Z"/>
    <path class="cls-5" d="M212.99,53.2c0-.28.23-.53.53-.53h11.65c.31,0,.53.25.53.53v3.07c0,.28-.23.53-.53.53h-7.8v3.49h6.42c.28,0,.53.25.53.53v3.07c0,.31-.25.53-.53.53h-6.42v3.8h7.8c.31,0,.53.25.53.53v3.07c0,.28-.23.53-.53.53h-11.65c-.31,0-.53-.25-.53-.53v-18.63Z"/>
    <path class="cls-5" d="M238.21,52.38c2.81,0,4.9.87,6.81,2.62.25.22.25.56.03.79l-2.19,2.28c-.2.2-.51.2-.7,0-1.04-.93-2.42-1.44-3.8-1.44-3.18,0-5.52,2.65-5.52,5.8s2.36,5.71,5.55,5.71c1.32,0,2.76-.48,3.77-1.35.2-.17.56-.17.73.03l2.2,2.34c.2.2.17.56-.03.76-1.91,1.86-4.33,2.73-6.84,2.73-5.63,0-10.16-4.48-10.16-10.1s4.53-10.16,10.16-10.16Z"/>
    <path class="cls-5" d="M248.43,53.2c0-.28.23-.53.53-.53h11.65c.31,0,.53.25.53.53v3.07c0,.28-.23.53-.53.53h-7.8v3.49h6.42c.28,0,.53.25.53.53v3.07c0,.31-.25.53-.53.53h-6.42v3.8h7.8c.31,0,.53.25.53.53v3.07c0,.28-.23.53-.53.53h-11.65c-.31,0-.53-.25-.53-.53v-18.63Z"/>
  </g>
  <g>
    <path class="cls-5" d="M86.15,95.01l1.32-2.34c.23-.37.76-.31.96-.17.11.06,2.14,1.55,4,1.55,1.13,0,1.94-.7,1.94-1.69,0-1.18-.99-2.08-2.9-2.84-2.42-.96-5.46-2.84-5.46-6.22,0-2.79,2.17-5.6,6.5-5.6,2.93,0,5.18,1.49,6.02,2.11.34.2.28.7.17.9l-1.44,2.17c-.2.31-.7.56-.96.37-.25-.14-2.31-1.69-4.02-1.69-1.01,0-1.77.68-1.77,1.44,0,1.04.84,1.83,3.07,2.73,2.2.87,5.69,2.59,5.69,6.42,0,2.9-2.51,5.83-6.64,5.83-3.66,0-5.69-1.52-6.33-2.17-.28-.28-.37-.39-.14-.79Z"/>
    <path class="cls-5" d="M111.37,77.7c5.63,0,10.13,4.53,10.13,10.16s-4.5,10.1-10.13,10.1-10.1-4.48-10.1-10.1,4.48-10.16,10.1-10.16ZM111.37,93.46c3.1,0,5.63-2.53,5.63-5.6s-2.53-5.66-5.63-5.66-5.6,2.56-5.6,5.66,2.53,5.6,5.6,5.6Z"/>
    <path class="cls-5" d="M133.64,77.7c2.81,0,4.9.87,6.81,2.62.25.22.25.56.03.79l-2.19,2.28c-.2.2-.51.2-.7,0-1.04-.93-2.42-1.44-3.8-1.44-3.18,0-5.52,2.65-5.52,5.8s2.36,5.71,5.55,5.71c1.32,0,2.76-.48,3.77-1.35.2-.17.56-.17.73.03l2.2,2.34c.2.2.17.56-.03.76-1.91,1.86-4.33,2.73-6.84,2.73-5.63,0-10.16-4.48-10.16-10.1s4.53-10.16,10.16-10.16Z"/>
    <path class="cls-5" d="M143.86,78.52c0-.28.25-.53.53-.53h3.38c.28,0,.53.25.53.53v18.63c0,.28-.25.53-.53.53h-3.38c-.28,0-.53-.25-.53-.53v-18.63Z"/>
    <path class="cls-5" d="M150.62,96.95l8.81-18.94c.08-.17.28-.31.48-.31h.28c.2,0,.39.14.48.31l8.81,18.94c.17.37-.06.73-.48.73h-3.12c-.51,0-.73-.17-.99-.7l-1.01-2.22h-7.66l-1.01,2.25c-.14.34-.45.68-1.01.68h-3.1c-.42,0-.65-.37-.48-.73ZM162.18,90.93l-2.14-4.64h-.03l-2.11,4.64h4.28Z"/>
    <path class="cls-5" d="M171.79,78.52c0-.28.23-.53.53-.53h3.35c.28,0,.53.25.53.53v15.03h6.7c.31,0,.53.25.53.53v3.07c0,.28-.22.53-.53.53h-10.58c-.31,0-.53-.25-.53-.53v-18.63Z"/>
    <path class="cls-5" d="M201.12,77.7c2.81,0,4.9.87,6.81,2.62.25.22.25.56.03.79l-2.19,2.28c-.2.2-.51.2-.7,0-1.04-.93-2.42-1.44-3.8-1.44-3.18,0-5.52,2.65-5.52,5.8s2.36,5.71,5.55,5.71c1.32,0,2.76-.48,3.77-1.35.2-.17.56-.17.73.03l2.2,2.34c.2.2.17.56-.03.76-1.91,1.86-4.33,2.73-6.84,2.73-5.63,0-10.16-4.48-10.16-10.1s4.53-10.16,10.16-10.16Z"/>
    <path class="cls-5" d="M211.34,78.52c0-.28.23-.53.53-.53h3.35c.28,0,.53.25.53.53v15.03h6.7c.31,0,.53.25.53.53v3.07c0,.28-.23.53-.53.53h-10.58c-.31,0-.53-.25-.53-.53v-18.63Z"/>
    <path class="cls-5" d="M225.22,78.52c0-.28.25-.53.53-.53h3.46c.31,0,.53.25.53.53v11.4c0,1.97,1.46,3.55,3.46,3.55s3.52-1.58,3.52-3.55v-11.4c0-.28.22-.53.53-.53h3.46c.28,0,.53.25.53.53v11.62c0,4.28-3.6,7.83-8.05,7.83s-7.99-3.55-7.99-7.83v-11.62Z"/>
    <path class="cls-5" d="M245.8,78.52c0-.28.22-.53.53-.53h6.56c3.32,0,6.05,2.28,6.05,5.24,0,2.17-1.94,3.74-3.27,4.45,1.49.62,3.77,2,3.77,4.59,0,3.15-2.79,5.43-6.14,5.43h-6.98c-.31,0-.53-.25-.53-.53v-18.63ZM252.38,85.98c1.07,0,1.97-.9,1.97-2.03s-.9-1.91-1.97-1.91h-2.2v3.94h2.2ZM252.75,93.66c1.1,0,2.03-.9,2.03-2.05s-1.21-1.97-2.31-1.97h-2.28v4.03h2.56Z"/>
  </g>
</svg>